<svg xmlns="http://www.w3.org/2000/svg" viewBox="0 0 100 100">
  <defs>
    <linearGradient id="g" x1="0" y1="0" x2="1" y2="1">
      <stop offset="0" stop-color="#8b7bf0"/>
      <stop offset="1" stop-color="#6f5ae0"/>
    </linearGradient>
  </defs>
  <rect width="100" height="100" rx="24" fill="#efeafc"/>
  <path fill="url(#g)" stroke="#5a48c0" stroke-width="3" stroke-linejoin="round" d="
    M30 30
    h9
    a7 7 0 1 1 14 0
    h9
    a4 4 0 0 1 4 4
    v9
    a7 7 0 1 0 0 14
    v9
    a4 4 0 0 1 -4 4
    h-9
    a7 7 0 1 1 -14 0
    h-9
    a4 4 0 0 1 -4 -4
    v-9
    a7 7 0 1 0 0 -14
    v-9
    a4 4 0 0 1 4 -4
    z"/>
  <circle cx="42" cy="46" r="3.4" fill="#fff"/>
  <circle cx="58" cy="46" r="3.4" fill="#fff"/>
  <path d="M43 58 q7 6 14 0" fill="none" stroke="#fff" stroke-width="3" stroke-linecap="round"/>
</svg>
